<svg xmlns="http://www.w3.org/2000/svg" xmlns:xlink="http://www.w3.org/1999/xlink" width="500" zoomAndPan="magnify" viewBox="0 0 375 97.5" height="130" preserveAspectRatio="xMidYMid meet" version="1.0"><defs><g/><clipPath id="7b7c56a05e"><path d="M 55.117188 85.304688 L 129.941406 85.304688 L 129.941406 97.003906 L 55.117188 97.003906 Z M 55.117188 85.304688 " clip-rule="nonzero"/></clipPath><clipPath id="f552b685f1"><path d="M 127.738281 97.003906 L 57.320312 97.003906 C 56.109375 97.003906 55.117188 96.011719 55.117188 94.796875 L 55.117188 87.511719 C 55.117188 86.296875 56.109375 85.304688 57.320312 85.304688 L 127.738281 85.304688 C 128.953125 85.304688 129.941406 86.296875 129.941406 87.511719 L 129.941406 94.796875 C 129.941406 96.011719 128.953125 97.003906 127.738281 97.003906 " clip-rule="nonzero"/></clipPath><clipPath id="2cc611aa76"><path d="M 184.34375 85.304688 L 278.292969 85.304688 L 278.292969 97.003906 L 184.34375 97.003906 Z M 184.34375 85.304688 " clip-rule="nonzero"/></clipPath><clipPath id="8d8b162237"><path d="M 276.085938 97.003906 L 186.546875 97.003906 C 185.332031 97.003906 184.34375 96.011719 184.34375 94.796875 L 184.34375 87.511719 C 184.34375 86.296875 185.332031 85.304688 186.546875 85.304688 L 276.085938 85.304688 C 277.300781 85.304688 278.292969 86.296875 278.292969 87.511719 L 278.292969 94.796875 C 278.292969 96.011719 277.300781 97.003906 276.085938 97.003906 " clip-rule="nonzero"/></clipPath></defs><g fill="#006a6a" fill-opacity="1"><g transform="translate(1.141125, 75.100873)"><g><path d="M 30.234375 -11.1875 C 34.671875 -11.382812 38.066406 -12.929688 40.421875 -15.828125 C 40.828125 -16.296875 41.265625 -16.53125 41.734375 -16.53125 C 42.128906 -16.53125 42.5 -16.363281 42.84375 -16.03125 L 48.578125 -10.484375 C 48.984375 -10.078125 49.1875 -9.671875 49.1875 -9.265625 C 49.1875 -8.796875 49.050781 -8.394531 48.78125 -8.0625 C 46.5625 -5.3125 43.722656 -3.144531 40.265625 -1.5625 C 36.804688 0.0195312 33.023438 0.8125 28.921875 0.8125 C 22.742188 0.8125 17.617188 -0.765625 13.546875 -3.921875 C 9.484375 -7.085938 6.75 -11.425781 5.34375 -16.9375 C 4.53125 -19.894531 4.125 -23.019531 4.125 -26.3125 C 4.125 -30.207031 4.492188 -33.5 5.234375 -36.1875 C 6.578125 -41.15625 9.28125 -45.148438 13.34375 -48.171875 C 17.414062 -51.203125 22.238281 -52.71875 27.8125 -52.71875 C 34.40625 -52.71875 39.632812 -50.769531 43.5 -46.875 C 47.363281 -42.976562 49.863281 -37.5 51 -30.4375 C 51.269531 -28.21875 51.472656 -25.765625 51.609375 -23.078125 C 51.609375 -21.941406 51.035156 -21.375 49.890625 -21.375 L 18.953125 -21.375 C 18.546875 -21.375 18.34375 -21.171875 18.34375 -20.765625 C 18.539062 -19.347656 18.773438 -18.304688 19.046875 -17.640625 C 19.722656 -15.554688 21.050781 -13.957031 23.03125 -12.84375 C 25.007812 -11.738281 27.410156 -11.1875 30.234375 -11.1875 Z M 27.625 -40.421875 C 25.46875 -40.421875 23.664062 -39.898438 22.21875 -38.859375 C 20.78125 -37.816406 19.789062 -36.351562 19.25 -34.46875 C 18.914062 -33.195312 18.710938 -32.359375 18.640625 -31.953125 C 18.578125 -31.546875 18.75 -31.34375 19.15625 -31.34375 L 36.28125 -31.34375 C 36.625 -31.34375 36.796875 -31.476562 36.796875 -31.75 C 36.796875 -32.488281 36.660156 -33.257812 36.390625 -34.0625 C 35.785156 -36.019531 34.742188 -37.566406 33.265625 -38.703125 C 31.785156 -39.847656 29.90625 -40.421875 27.625 -40.421875 Z M 27.625 -40.421875 "/></g></g></g><g fill="#006a6a" fill-opacity="1"><g transform="translate(51.234415, 75.100873)"><g><path d="M 62.703125 -52.609375 C 67.941406 -52.609375 72.035156 -51.03125 74.984375 -47.875 C 77.941406 -44.71875 79.421875 -40.285156 79.421875 -34.578125 L 79.421875 -1.71875 C 79.421875 -0.570312 78.851562 0 77.71875 0 L 66.921875 0 C 65.785156 0 65.21875 -0.570312 65.21875 -1.71875 L 65.21875 -31.453125 C 65.21875 -34.203125 64.507812 -36.382812 63.09375 -38 C 61.6875 -39.613281 59.804688 -40.421875 57.453125 -40.421875 C 55.097656 -40.421875 53.179688 -39.613281 51.703125 -38 C 50.222656 -36.382812 49.484375 -34.234375 49.484375 -31.546875 L 49.484375 -1.71875 C 49.484375 -0.570312 48.914062 0 47.78125 0 L 37.09375 0 C 35.945312 0 35.375 -0.570312 35.375 -1.71875 L 35.375 -31.453125 C 35.375 -34.140625 34.632812 -36.304688 33.15625 -37.953125 C 31.675781 -39.597656 29.765625 -40.421875 27.421875 -40.421875 C 25.265625 -40.421875 23.460938 -39.78125 22.015625 -38.5 C 20.578125 -37.226562 19.722656 -35.445312 19.453125 -33.15625 L 19.453125 -1.71875 C 19.453125 -0.570312 18.878906 0 17.734375 0 L 6.953125 0 C 5.804688 0 5.234375 -0.570312 5.234375 -1.71875 L 5.234375 -50.09375 C 5.234375 -51.238281 5.804688 -51.8125 6.953125 -51.8125 L 17.734375 -51.8125 C 18.878906 -51.8125 19.453125 -51.238281 19.453125 -50.09375 L 19.453125 -46.875 C 19.453125 -46.601562 19.535156 -46.429688 19.703125 -46.359375 C 19.867188 -46.296875 20.019531 -46.398438 20.15625 -46.671875 C 22.914062 -50.628906 27.148438 -52.609375 32.859375 -52.609375 C 36.222656 -52.609375 39.144531 -51.921875 41.625 -50.546875 C 44.113281 -49.171875 46.03125 -47.171875 47.375 -44.546875 C 47.4375 -44.285156 47.550781 -44.171875 47.71875 -44.203125 C 47.894531 -44.234375 48.050781 -44.347656 48.1875 -44.546875 C 49.726562 -47.234375 51.738281 -49.25 54.21875 -50.59375 C 56.707031 -51.9375 59.535156 -52.609375 62.703125 -52.609375 Z M 62.703125 -52.609375 "/></g></g></g><g fill="#006a6a" fill-opacity="1"><g transform="translate(130.355727, 75.100873)"><g><path d="M 30.234375 -11.1875 C 34.671875 -11.382812 38.066406 -12.929688 40.421875 -15.828125 C 40.828125 -16.296875 41.265625 -16.53125 41.734375 -16.53125 C 42.128906 -16.53125 42.5 -16.363281 42.84375 -16.03125 L 48.578125 -10.484375 C 48.984375 -10.078125 49.1875 -9.671875 49.1875 -9.265625 C 49.1875 -8.796875 49.050781 -8.394531 48.78125 -8.0625 C 46.5625 -5.3125 43.722656 -3.144531 40.265625 -1.5625 C 36.804688 0.0195312 33.023438 0.8125 28.921875 0.8125 C 22.742188 0.8125 17.617188 -0.765625 13.546875 -3.921875 C 9.484375 -7.085938 6.75 -11.425781 5.34375 -16.9375 C 4.53125 -19.894531 4.125 -23.019531 4.125 -26.3125 C 4.125 -30.207031 4.492188 -33.5 5.234375 -36.1875 C 6.578125 -41.15625 9.28125 -45.148438 13.34375 -48.171875 C 17.414062 -51.203125 22.238281 -52.71875 27.8125 -52.71875 C 34.40625 -52.71875 39.632812 -50.769531 43.5 -46.875 C 47.363281 -42.976562 49.863281 -37.5 51 -30.4375 C 51.269531 -28.21875 51.472656 -25.765625 51.609375 -23.078125 C 51.609375 -21.941406 51.035156 -21.375 49.890625 -21.375 L 18.953125 -21.375 C 18.546875 -21.375 18.34375 -21.171875 18.34375 -20.765625 C 18.539062 -19.347656 18.773438 -18.304688 19.046875 -17.640625 C 19.722656 -15.554688 21.050781 -13.957031 23.03125 -12.84375 C 25.007812 -11.738281 27.410156 -11.1875 30.234375 -11.1875 Z M 27.625 -40.421875 C 25.46875 -40.421875 23.664062 -39.898438 22.21875 -38.859375 C 20.78125 -37.816406 19.789062 -36.351562 19.25 -34.46875 C 18.914062 -33.195312 18.710938 -32.359375 18.640625 -31.953125 C 18.578125 -31.546875 18.75 -31.34375 19.15625 -31.34375 L 36.28125 -31.34375 C 36.625 -31.34375 36.796875 -31.476562 36.796875 -31.75 C 36.796875 -32.488281 36.660156 -33.257812 36.390625 -34.0625 C 35.785156 -36.019531 34.742188 -37.566406 33.265625 -38.703125 C 31.785156 -39.847656 29.90625 -40.421875 27.625 -40.421875 Z M 27.625 -40.421875 "/></g></g></g><g fill="#006a6a" fill-opacity="1"><g transform="translate(180.449017, 75.100873)"><g><path d="M 25.90625 0.703125 C 21.40625 0.703125 17.472656 0.0664062 14.109375 -1.203125 C 10.753906 -2.484375 8.164062 -4.265625 6.34375 -6.546875 C 4.53125 -8.835938 3.625 -11.425781 3.625 -14.3125 L 3.625 -14.8125 C 3.625 -15.957031 4.195312 -16.53125 5.34375 -16.53125 L 15.515625 -16.53125 C 16.660156 -16.53125 17.234375 -16.328125 17.234375 -15.921875 L 17.234375 -15.21875 C 17.234375 -13.738281 18.039062 -12.476562 19.65625 -11.4375 C 21.269531 -10.394531 23.316406 -9.875 25.796875 -9.875 C 28.085938 -9.875 29.9375 -10.3125 31.34375 -11.1875 C 32.757812 -12.0625 33.46875 -13.203125 33.46875 -14.609375 C 33.46875 -15.828125 32.859375 -16.738281 31.640625 -17.34375 C 30.429688 -17.945312 28.453125 -18.582031 25.703125 -19.25 C 22.410156 -20.125 19.957031 -20.898438 18.34375 -21.578125 C 13.976562 -23.046875 10.515625 -24.851562 7.953125 -27 C 5.398438 -29.15625 4.125 -32.25 4.125 -36.28125 C 4.125 -41.257812 6.070312 -45.207031 9.96875 -48.125 C 13.875 -51.050781 18.984375 -52.515625 25.296875 -52.515625 C 29.597656 -52.515625 33.378906 -51.820312 36.640625 -50.4375 C 39.898438 -49.0625 42.421875 -47.128906 44.203125 -44.640625 C 45.984375 -42.160156 46.875 -39.34375 46.875 -36.1875 C 46.875 -35.851562 46.722656 -35.566406 46.421875 -35.328125 C 46.117188 -35.085938 45.695312 -34.96875 45.15625 -34.96875 L 35.28125 -34.96875 C 34.132812 -34.96875 33.5625 -35.171875 33.5625 -35.578125 L 33.5625 -36.1875 C 33.5625 -37.664062 32.820312 -38.90625 31.34375 -39.90625 C 29.863281 -40.914062 27.882812 -41.421875 25.40625 -41.421875 C 23.1875 -41.421875 21.351562 -41.019531 19.90625 -40.21875 C 18.457031 -39.414062 17.734375 -38.304688 17.734375 -36.890625 C 17.734375 -35.546875 18.421875 -34.535156 19.796875 -33.859375 C 21.179688 -33.191406 23.453125 -32.488281 26.609375 -31.75 C 28.554688 -31.34375 30.4375 -30.835938 32.25 -30.234375 C 37.09375 -28.828125 40.890625 -27.015625 43.640625 -24.796875 C 46.398438 -22.578125 47.78125 -19.351562 47.78125 -15.125 C 47.78125 -10.144531 45.796875 -6.257812 41.828125 -3.46875 C 37.867188 -0.6875 32.5625 0.703125 25.90625 0.703125 Z M 25.90625 0.703125 "/></g></g></g><g fill="#006a6a" fill-opacity="1"><g transform="translate(226.107475, 75.100873)"><g><path d="M 6.953125 0 C 5.804688 0 5.234375 -0.570312 5.234375 -1.71875 L 5.234375 -68.84375 C 5.234375 -69.988281 5.804688 -70.5625 6.953125 -70.5625 L 17.734375 -70.5625 C 18.878906 -70.5625 19.453125 -69.988281 19.453125 -68.84375 L 19.453125 -35.578125 C 19.453125 -35.304688 19.535156 -35.15625 19.703125 -35.125 C 19.867188 -35.09375 20.019531 -35.175781 20.15625 -35.375 L 33.5625 -50.796875 C 34.238281 -51.472656 34.945312 -51.8125 35.6875 -51.8125 L 47.875 -51.8125 C 48.34375 -51.8125 48.710938 -51.726562 48.984375 -51.5625 C 49.253906 -51.394531 49.390625 -51.140625 49.390625 -50.796875 C 49.390625 -50.398438 49.253906 -50.03125 48.984375 -49.6875 L 36.59375 -34.171875 C 36.382812 -33.972656 36.347656 -33.703125 36.484375 -33.359375 L 51.3125 -2.015625 L 51.5 -1.203125 C 51.5 -0.398438 51 0 50 0 L 38.609375 0 C 37.660156 0 36.988281 -0.4375 36.59375 -1.3125 L 26.8125 -24.390625 C 26.613281 -24.796875 26.34375 -24.832031 26 -24.5 L 19.75 -16.53125 C 19.550781 -16.257812 19.453125 -16.023438 19.453125 -15.828125 L 19.453125 -1.71875 C 19.453125 -0.570312 18.878906 0 17.734375 0 Z M 6.953125 0 "/></g></g></g><g fill="#006a6a" fill-opacity="1"><g transform="translate(274.789667, 75.100873)"><g><path d="M 26 -52.609375 C 30.375 -52.609375 34.273438 -51.851562 37.703125 -50.34375 C 41.128906 -48.832031 43.796875 -46.765625 45.703125 -44.140625 C 47.617188 -41.523438 48.578125 -38.601562 48.578125 -35.375 L 48.578125 -1.71875 C 48.578125 -0.570312 48.007812 0 46.875 0 L 36.078125 0 C 34.941406 0 34.375 -0.570312 34.375 -1.71875 L 34.375 -4.125 C 34.375 -4.394531 34.304688 -4.546875 34.171875 -4.578125 C 34.035156 -4.617188 33.867188 -4.535156 33.671875 -4.328125 C 30.578125 -0.898438 25.972656 0.8125 19.859375 0.8125 C 14.679688 0.8125 10.515625 -0.460938 7.359375 -3.015625 C 4.203125 -5.578125 2.625 -9.34375 2.625 -14.3125 C 2.625 -19.488281 4.4375 -23.503906 8.0625 -26.359375 C 11.6875 -29.210938 16.863281 -30.640625 23.59375 -30.640625 L 33.765625 -30.640625 C 34.171875 -30.640625 34.375 -30.84375 34.375 -31.25 L 34.375 -33.359375 C 34.375 -35.578125 33.679688 -37.304688 32.296875 -38.546875 C 30.921875 -39.796875 28.925781 -40.421875 26.3125 -40.421875 C 24.289062 -40.421875 22.625 -40.082031 21.3125 -39.40625 C 20.007812 -38.738281 19.117188 -37.800781 18.640625 -36.59375 C 18.242188 -35.644531 17.570312 -35.207031 16.625 -35.28125 L 5.4375 -36.6875 C 4.90625 -36.757812 4.488281 -36.910156 4.1875 -37.140625 C 3.882812 -37.378906 3.765625 -37.695312 3.828125 -38.09375 C 4.160156 -40.851562 5.316406 -43.34375 7.296875 -45.5625 C 9.285156 -47.78125 11.910156 -49.507812 15.171875 -50.75 C 18.429688 -51.988281 22.039062 -52.609375 26 -52.609375 Z M 23.984375 -9.78125 C 26.878906 -9.78125 29.332031 -10.550781 31.34375 -12.09375 C 33.363281 -13.632812 34.375 -15.617188 34.375 -18.046875 L 34.375 -21.578125 C 34.375 -21.972656 34.171875 -22.171875 33.765625 -22.171875 L 26.609375 -22.171875 C 23.585938 -22.171875 21.203125 -21.597656 19.453125 -20.453125 C 17.703125 -19.316406 16.828125 -17.707031 16.828125 -15.625 C 16.828125 -13.8125 17.484375 -12.382812 18.796875 -11.34375 C 20.109375 -10.300781 21.835938 -9.78125 23.984375 -9.78125 Z M 23.984375 -9.78125 "/></g></g></g><g fill="#006a6a" fill-opacity="1"><g transform="translate(322.967905, 75.100873)"><g><path d="M 4.9375 20.0625 C 4.46875 20.0625 4.234375 19.488281 4.234375 18.34375 L 4.234375 10.078125 C 4.234375 8.929688 4.4375 8.359375 4.84375 8.359375 L 5.4375 8.359375 C 9.601562 8.359375 12.578125 7.835938 14.359375 6.796875 C 16.140625 5.753906 17.4375 3.625 18.25 0.40625 C 18.382812 0.0703125 18.382812 -0.195312 18.25 -0.40625 L 2.015625 -49.890625 C 1.953125 -50.023438 1.921875 -50.226562 1.921875 -50.5 C 1.921875 -50.90625 2.050781 -51.222656 2.3125 -51.453125 C 2.582031 -51.691406 2.953125 -51.8125 3.421875 -51.8125 L 15.015625 -51.8125 C 15.960938 -51.8125 16.601562 -51.34375 16.9375 -50.40625 L 25.203125 -20.359375 C 25.265625 -20.085938 25.394531 -19.953125 25.59375 -19.953125 C 25.800781 -19.953125 25.9375 -20.085938 26 -20.359375 L 33.875 -50.296875 C 34.070312 -51.304688 34.707031 -51.8125 35.78125 -51.8125 L 47.375 -51.8125 C 47.976562 -51.8125 48.414062 -51.625 48.6875 -51.25 C 48.957031 -50.882812 48.988281 -50.429688 48.78125 -49.890625 L 31.546875 1.921875 C 29.867188 6.816406 28.15625 10.488281 26.40625 12.9375 C 24.65625 15.394531 22.203125 17.195312 19.046875 18.34375 C 15.890625 19.488281 11.421875 20.0625 5.640625 20.0625 Z M 4.9375 20.0625 "/></g></g></g><g clip-path="url(#7b7c56a05e)"><g clip-path="url(#f552b685f1)"><path fill="#b22b1d" d="M 55.117188 85.304688 L 129.941406 85.304688 L 129.941406 97.003906 L 55.117188 97.003906 Z M 55.117188 85.304688 " fill-opacity="1" fill-rule="nonzero"/></g></g><g clip-path="url(#2cc611aa76)"><g clip-path="url(#8d8b162237)"><path fill="#b22b1d" d="M 184.34375 85.304688 L 278.292969 85.304688 L 278.292969 97.003906 L 184.34375 97.003906 Z M 184.34375 85.304688 " fill-opacity="1" fill-rule="nonzero"/></g></g></svg>