<svg width="436" height="358" viewBox="0 0 436 358" fill="none" xmlns="http://www.w3.org/2000/svg">
<g clip-path="url(#clip0_94_2)">
<path d="M95.872 94.04C96.8107 94.04 97.6213 94.3813 98.304 95.064C98.9867 95.7467 99.328 96.5573 99.328 97.496L99.328 115.544C99.328 116.483 98.9867 117.293 98.304 117.976C97.6213 118.659 96.8107 119 95.872 119L14.976 119C14.0373 119 13.2267 118.659 12.544 117.976C11.8613 117.293 11.52 116.483 11.52 115.544L11.52 32.856C11.52 31.9173 11.8613 31.1067 12.544 30.424C13.2267 29.7413 14.0373 29.4 14.976 29.4L94.592 29.4C95.5307 29.4 96.3413 29.7413 97.024 30.424C97.7067 31.1067 98.048 31.9173 98.048 32.856L98.048 50.904C98.048 51.8427 97.7067 52.6533 97.024 53.336C96.3413 54.0187 95.5307 54.36 94.592 54.36L44.8 54.36L44.8 62.424L87.552 62.424C88.4907 62.424 89.3013 62.7653 89.984 63.448C90.6667 64.1307 91.008 64.9413 91.008 65.88L91.008 82.52C91.008 83.4587 90.6667 84.2693 89.984 84.952C89.3013 85.6347 88.4907 85.976 87.552 85.976L44.8 85.976L44.8 94.04L95.872 94.04ZM179.918 32.856C181.198 30.552 183.033 29.4 185.422 29.4L208.846 29.4C209.785 29.4 210.595 29.7413 211.278 30.424C211.961 31.1067 212.302 31.9173 212.302 32.856L212.302 115.544C212.302 116.483 211.961 117.293 211.278 117.976C210.595 118.659 209.785 119 208.846 119L185.678 119C184.739 119 183.929 118.659 183.246 117.976C182.563 117.293 182.222 116.483 182.222 115.544L182.222 75.864L172.878 94.296C172.622 94.8933 172.025 95.576 171.086 96.344C170.147 97.112 168.953 97.496 167.502 97.496L158.798 97.496C157.347 97.496 156.153 97.112 155.214 96.344C154.275 95.576 153.678 94.8933 153.422 94.296L144.078 75.864L144.078 115.544C144.078 116.483 143.737 117.293 143.054 117.976C142.371 118.659 141.561 119 140.622 119L117.454 119C116.515 119 115.705 118.659 115.022 117.976C114.339 117.293 113.998 116.483 113.998 115.544L113.998 32.856C113.998 31.9173 114.339 31.1067 115.022 30.424C115.705 29.7413 116.515 29.4 117.454 29.4L140.878 29.4C143.267 29.4 145.102 30.552 146.382 32.856L163.15 63.576L179.918 32.856Z" fill="#40484C"/>
<path d="M95.872 194.04C96.8107 194.04 97.6213 194.381 98.304 195.064C98.9867 195.747 99.328 196.557 99.328 197.496L99.328 215.544C99.328 216.483 98.9867 217.293 98.304 217.976C97.6213 218.659 96.8107 219 95.872 219L14.976 219C14.0373 219 13.2267 218.659 12.544 217.976C11.8613 217.293 11.52 216.483 11.52 215.544L11.52 132.856C11.52 131.917 11.8613 131.107 12.544 130.424C13.2267 129.741 14.0373 129.4 14.976 129.4L94.592 129.4C95.5307 129.4 96.3413 129.741 97.024 130.424C97.7067 131.107 98.048 131.917 98.048 132.856L98.048 150.904C98.048 151.843 97.7067 152.653 97.024 153.336C96.3413 154.019 95.5307 154.36 94.592 154.36L44.8 154.36L44.8 162.424L87.552 162.424C88.4907 162.424 89.3013 162.765 89.984 163.448C90.6667 164.131 91.008 164.941 91.008 165.88L91.008 182.52C91.008 183.459 90.6667 184.269 89.984 184.952C89.3013 185.635 88.4907 185.976 87.552 185.976L44.8 185.976L44.8 194.04L95.872 194.04ZM170.19 161.912C179.577 162.936 187.086 164.6 192.718 166.904C198.435 169.208 202.574 172.237 205.134 175.992C207.694 179.747 208.974 184.44 208.974 190.072C208.974 196.216 206.969 201.592 202.958 206.2C199.033 210.723 193.571 214.221 186.574 216.696C179.577 219.085 171.598 220.28 162.638 220.28C152.654 220.28 144.206 219.043 137.294 216.568C130.382 214.093 125.219 210.808 121.806 206.712C118.393 202.531 116.686 197.965 116.686 193.016C116.686 192.163 116.942 191.48 117.454 190.968C118.051 190.456 118.777 190.2 119.63 190.2L145.87 190.2C147.662 190.2 149.113 190.755 150.222 191.864C151.673 193.229 153.294 194.168 155.086 194.68C156.878 195.107 159.395 195.32 162.638 195.32C170.745 195.32 174.798 194.083 174.798 191.608C174.798 190.584 174.243 189.731 173.134 189.048C172.11 188.28 170.233 187.64 167.502 187.128C164.857 186.531 160.931 185.933 155.726 185.336C144.035 183.971 135.075 181.069 128.846 176.632C122.617 172.109 119.502 165.752 119.502 157.56C119.502 151.757 121.251 146.637 124.75 142.2C128.249 137.763 133.198 134.307 139.598 131.832C146.083 129.357 153.593 128.12 162.126 128.12C171.001 128.12 178.766 129.528 185.422 132.344C192.078 135.075 197.155 138.488 200.654 142.584C204.153 146.68 205.902 150.691 205.902 154.616C205.902 155.469 205.603 156.152 205.006 156.664C204.494 157.176 203.769 157.432 202.83 157.432L175.31 157.432C173.859 157.432 172.537 156.92 171.342 155.896C170.403 155.043 169.294 154.36 168.014 153.848C166.734 153.336 164.771 153.08 162.126 153.08C156.409 153.08 153.55 154.275 153.55 156.664C153.55 157.944 154.659 158.968 156.878 159.736C159.097 160.419 163.534 161.144 170.19 161.912Z" fill="#40484C"/>
<path d="M253.718 314.648C252.609 317.549 250.689 319 247.958 319L223.766 319C222.998 319 222.315 318.744 221.718 318.232C221.206 317.635 220.95 316.952 220.95 316.184L221.078 315.416L248.982 233.624C249.323 232.515 249.963 231.533 250.902 230.68C251.841 229.827 253.121 229.4 254.742 229.4L290.326 229.4C291.947 229.4 293.227 229.827 294.166 230.68C295.105 231.533 295.745 232.515 296.086 233.624L323.99 315.416L324.118 316.184C324.118 316.952 323.819 317.635 323.222 318.232C322.71 318.744 322.07 319 321.302 319L297.11 319C294.379 319 292.459 317.549 291.35 314.648L288.15 305.688L256.918 305.688L253.718 314.648ZM272.534 254.104L263.446 280.728L281.622 280.728L272.534 254.104ZM427.748 229.4C428.516 229.4 429.156 229.699 429.668 230.296C430.265 230.808 430.564 231.405 430.564 232.088C430.564 232.6 430.436 233.112 430.18 233.624L397.924 287L397.924 315.544C397.924 316.483 397.583 317.293 396.9 317.976C396.217 318.659 395.407 319 394.468 319L367.204 319C366.265 319 365.455 318.659 364.772 317.976C364.089 317.293 363.748 316.483 363.748 315.544L363.748 287L331.62 233.624C331.364 233.112 331.236 232.643 331.236 232.216C331.236 231.448 331.492 230.808 332.004 230.296C332.601 229.699 333.284 229.4 334.052 229.4L361.06 229.4C363.449 229.4 365.199 230.381 366.308 232.344L380.772 257.688L395.62 232.6C396.9 230.467 398.692 229.4 400.996 229.4L427.748 229.4Z" fill="#40484C"/>
<path opacity="0.9" d="M80.5047 279.16C77.9606 277.602 77.9547 273.909 80.4937 272.343L148.432 230.456C151.095 228.814 154.527 230.726 154.532 233.854L154.666 317.411C154.671 320.539 151.245 322.462 148.578 320.829L80.5047 279.16Z" fill="#40484C"/>
<path opacity="0.9" d="M136.448 279.07C133.903 277.513 133.897 273.819 136.437 272.253L204.375 230.366C207.038 228.724 210.469 230.636 210.474 233.764L210.609 317.321C210.614 320.449 207.188 322.372 204.52 320.739L136.448 279.07Z" fill="#40484C"/>
</g>
<defs>
<clipPath id="clip0_94_2">
<rect width="436" height="358" fill="white"/>
</clipPath>
</defs>
</svg>
